HIERARCHY
ROOT Root
{
  OFFSET 0.0 0.0 0.0
  CHANNELS 6 Xposition Yposition Zposition Zrotation Yrotation Xrotation
  JOINT Hips
  {
    OFFSET 0.0 100.0 0.0
    CHANNELS 6 Xposition Yposition Zposition Zrotation Yrotation Xrotation
    JOINT Spine1
    {
      OFFSET -0.013727 5.003763 -0.053727
      CHANNELS 3 Zrotation Yrotation Xrotation
      JOINT Spine2
      {
        OFFSET -0.0 7.125301 -0.029825
        CHANNELS 3 Zrotation Yrotation Xrotation
        JOINT Chest
        {
          OFFSET -1e-06 7.550063 -0.815971
          CHANNELS 3 Zrotation Yrotation Xrotation
          JOINT Neck1
          {
            OFFSET -0.181677 26.311295 -0.553348
            CHANNELS 3 Zrotation Yrotation Xrotation
            JOINT Neck2
            {
              OFFSET -3e-06 7.709397 2.302585
              CHANNELS 3 Zrotation Yrotation Xrotation
              JOINT Head
              {
                OFFSET -5e-06 6.128916 1.953709
                CHANNELS 3 Zrotation Yrotation Xrotation
                JOINT HeadEnd
                {
                  OFFSET 0.003598 16.065403 -1.835379
                  CHANNELS 3 Zrotation Yrotation Xrotation
                }
                JOINT Jaw
                {
                  OFFSET 0.002637 0.475592 3.094941
                  CHANNELS 3 Zrotation Yrotation Xrotation
                }
                JOINT LeftEye
                {
                  OFFSET 3.206381 5.380205 7.586883
                  CHANNELS 3 Zrotation Yrotation Xrotation
                }
                JOINT RightEye
                {
                  OFFSET -3.22244 5.361869 7.558234
                  CHANNELS 3 Zrotation Yrotation Xrotation
                }
              }
            }
          }
          JOINT LeftShoulder
          {
            OFFSET 1.621652 23.237164 5.113413
            CHANNELS 3 Zrotation Yrotation Xrotation
            JOINT LeftArm
            {
              OFFSET 14.919846 2e-06 -5.502326
              CHANNELS 3 Zrotation Yrotation Xrotation
              JOINT LeftForeArm
              {
                OFFSET 28.739307 0.0 -0.002588
                CHANNELS 3 Zrotation Yrotation Xrotation
                JOINT LeftHand
                {
                  OFFSET 27.093981 -1e-06 0.002609
                  CHANNELS 3 Zrotation Yrotation Xrotation
                  JOINT LeftHandThumb1
                  {
                    OFFSET 2.276482 -1.392045 3.191413
                    CHANNELS 3 Zrotation Yrotation Xrotation
                    JOINT LeftHandThumb2
                    {
                      OFFSET 4.012836 -1.828127 1.641654
                      CHANNELS 3 Zrotation Yrotation Xrotation
                      JOINT LeftHandThumb3
                      {
                        OFFSET 2.798515 0.0 -3e-06
                        CHANNELS 3 Zrotation Yrotation Xrotation
                        JOINT LeftHandThumbEnd
                        {
                          OFFSET 3.180793 -4e-06 4e-06
                          CHANNELS 3 Zrotation Yrotation Xrotation
                        }
                      }
                    }
                  }
                  JOINT LeftHandIndex1
                  {
                    OFFSET 3.247555 -0.531998 2.296169
                    CHANNELS 3 Zrotation Yrotation Xrotation
                    JOINT LeftHandIndex2
                    {
                      OFFSET 6.364578 0.01206 0.1786
                      CHANNELS 3 Zrotation Yrotation Xrotation
                      JOINT LeftHandIndex3
                      {
                        OFFSET 3.662364 0.0 0.0
                        CHANNELS 3 Zrotation Yrotation Xrotation
                        JOINT LeftHandIndex4
                        {
                          OFFSET 2.329242 4e-06 4e-06
                          CHANNELS 3 Zrotation Yrotation Xrotation
                          JOINT LeftHandIndexEnd
                          {
                            OFFSET 2.759615 -0.180537 -0.113024
                            CHANNELS 3 Zrotation Yrotation Xrotation
                          }
                        }
                      }
                    }
                  }
                  JOINT LeftHandMiddle1
                  {
                    OFFSET 3.163495 0.240981 1.000332
                    CHANNELS 3 Zrotation Yrotation Xrotation
                    JOINT LeftHandMiddle2
                    {
                      OFFSET 6.19078 -0.259278 -1.002548
                      CHANNELS 3 Zrotation Yrotation Xrotation
                      JOINT LeftHandMiddle3
                      {
                        OFFSET 4.35652 -4e-06 -1e-06
                        CHANNELS 3 Zrotation Yrotation Xrotation
                        JOINT LeftHandMiddle4
                        {
                          OFFSET 2.996877 -8e-06 0.0
                          CHANNELS 3 Zrotation Yrotation Xrotation
                          JOINT LeftHandMiddleEnd
                          {
                            OFFSET 2.304287 -0.294569 -0.031741
                            CHANNELS 3 Zrotation Yrotation Xrotation
                          }
                        }
                      }
                    }
                  }
                  JOINT LeftHandRing1
                  {
                    OFFSET 2.882643 -0.053652 -0.322543
                    CHANNELS 3 Zrotation Yrotation Xrotation
                    JOINT LeftHandRing2
                    {
                      OFFSET 5.854541 -0.486202 -1.373841
                      CHANNELS 3 Zrotation Yrotation Xrotation
                      JOINT LeftHandRing3
                      {
                        OFFSET 4.350578 0.0 3e-06
                        CHANNELS 3 Zrotation Yrotation Xrotation
                        JOINT LeftHandRing4
                        {
                          OFFSET 2.651321 7e-06 2e-06
                          CHANNELS 3 Zrotation Yrotation Xrotation
                          JOINT LeftHandRingEnd
                          {
                            OFFSET 1.936105 0.077687 -7.1e-05
                            CHANNELS 3 Zrotation Yrotation Xrotation
                          }
                        }
                      }
                    }
                  }
                  JOINT LeftHandPinky1
                  {
                    OFFSET 2.8655 -0.310005 -1.600378
                    CHANNELS 3 Zrotation Yrotation Xrotation
                    JOINT LeftHandPinky2
                    {
                      OFFSET 5.087849 -1.331141 -1.77123
                      CHANNELS 3 Zrotation Yrotation Xrotation
                      JOINT LeftHandPinky3
                      {
                        OFFSET 3.070974 4e-06 0.0
                        CHANNELS 3 Zrotation Yrotation Xrotation
                        JOINT LeftHandPinky4
                        {
                          OFFSET 1.549672 0.0 1e-06
                          CHANNELS 3 Zrotation Yrotation Xrotation
                          JOINT LeftHandPinkyEnd
                          {
                            OFFSET 1.944893 -0.157802 0.057219
                            CHANNELS 3 Zrotation Yrotation Xrotation
                          }
                        }
                      }
                    }
                  }
                }
              }
            }
          }
          JOINT RightShoulder
          {
            OFFSET -1.380118 23.180309 5.214158
            CHANNELS 3 Zrotation Yrotation Xrotation
            JOINT RightArm
            {
              OFFSET -15.037196 1.2e-05 -5.545604
              CHANNELS 3 Zrotation Yrotation Xrotation
              JOINT RightForeArm
              {
                OFFSET -28.736639 2e-06 -0.002597
                CHANNELS 3 Zrotation Yrotation Xrotation
                JOINT RightHand
                {
                  OFFSET -27.133619 -0.0 0.002613
                  CHANNELS 3 Zrotation Yrotation Xrotation
                  JOINT RightHandThumb1
                  {
                    OFFSET -2.274032 -1.383988 3.163127
                    CHANNELS 3 Zrotation Yrotation Xrotation
                    JOINT RightHandThumb2
                    {
                      OFFSET -4.011429 -1.827466 1.640914
                      CHANNELS 3 Zrotation Yrotation Xrotation
                      JOINT RightHandThumb3
                      {
                        OFFSET -2.794935 -4e-06 -3e-06
                        CHANNELS 3 Zrotation Yrotation Xrotation
                        JOINT RightHandThumbEnd
                        {
                          OFFSET -3.183852 4e-06 1e-06
                          CHANNELS 3 Zrotation Yrotation Xrotation
                        }
                      }
                    }
                  }
                  JOINT RightHandIndex1
                  {
                    OFFSET -3.253266 -0.520057 2.282866
                    CHANNELS 3 Zrotation Yrotation Xrotation
                    JOINT RightHandIndex2
                    {
                      OFFSET -6.341917 0.012471 0.178266
                      CHANNELS 3 Zrotation Yrotation Xrotation
                      JOINT RightHandIndex3
                      {
                        OFFSET -3.654871 -8e-06 -0.0
                        CHANNELS 3 Zrotation Yrotation Xrotation
                        JOINT RightHandIndex4
                        {
                          OFFSET -2.327586 0.0 1e-06
                          CHANNELS 3 Zrotation Yrotation Xrotation
                          JOINT RightHandIndexEnd
                          {
                            OFFSET -2.76179 -0.180656 -0.113078
                            CHANNELS 3 Zrotation Yrotation Xrotation
                          }
                        }
                      }
                    }
                  }
                  JOINT RightHandMiddle1
                  {
                    OFFSET -3.168106 0.246593 1.00103
                    CHANNELS 3 Zrotation Yrotation Xrotation
                    JOINT RightHandMiddle2
                    {
                      OFFSET -6.180828 -0.258836 -1.000895
                      CHANNELS 3 Zrotation Yrotation Xrotation
                      JOINT RightHandMiddle3
                      {
                        OFFSET -4.348901 0.0 -0.0
                        CHANNELS 3 Zrotation Yrotation Xrotation
                        JOINT RightHandMiddle4
                        {
                          OFFSET -3.00024 -4e-06 -2e-06
                          CHANNELS 3 Zrotation Yrotation Xrotation
                          JOINT RightHandMiddleEnd
                          {
                            OFFSET -2.30252 -0.29437 -0.031706
                            CHANNELS 3 Zrotation Yrotation Xrotation
                          }
                        }
                      }
                    }
                  }
                  JOINT RightHandRing1
                  {
                    OFFSET -2.88569 -0.067952 -0.308858
                    CHANNELS 3 Zrotation Yrotation Xrotation
                    JOINT RightHandRing2
                    {
                      OFFSET -5.854198 -0.48613 -1.373731
                      CHANNELS 3 Zrotation Yrotation Xrotation
                      JOINT RightHandRing3
                      {
                        OFFSET -4.33881 -4e-06 -0.0
                        CHANNELS 3 Zrotation Yrotation Xrotation
                        JOINT RightHandRing4
                        {
                          OFFSET -2.654903 -4e-06 4e-06
                          CHANNELS 3 Zrotation Yrotation Xrotation
                          JOINT RightHandRingEnd
                          {
                            OFFSET -1.933568 0.077527 -5.2e-05
                            CHANNELS 3 Zrotation Yrotation Xrotation
                          }
                        }
                      }
                    }
                  }
                  JOINT RightHandPinky1
                  {
                    OFFSET -2.866425 -0.342796 -1.584145
                    CHANNELS 3 Zrotation Yrotation Xrotation
                    JOINT RightHandPinky2
                    {
                      OFFSET -5.091371 -1.332055 -1.772385
                      CHANNELS 3 Zrotation Yrotation Xrotation
                      JOINT RightHandPinky3
                      {
                        OFFSET -3.062664 -4e-06 1e-06
                        CHANNELS 3 Zrotation Yrotation Xrotation
                        JOINT RightHandPinky4
                        {
                          OFFSET -1.546529 4e-06 -2e-06
                          CHANNELS 3 Zrotation Yrotation Xrotation
                          JOINT RightHandPinkyEnd
                          {
                            OFFSET -1.945119 -0.157718 0.057211
                            CHANNELS 3 Zrotation Yrotation Xrotation
                          }
                        }
                      }
                    }
                  }
                }
              }
            }
          }
        }
      }
    }
    JOINT LeftLeg
    {
      OFFSET 10.043214 -8.434526 2.595655
      CHANNELS 3 Zrotation Yrotation Xrotation
      JOINT LeftShin
      {
        OFFSET -1e-06 -43.221752 -0.802913
        CHANNELS 3 Zrotation Yrotation Xrotation
        JOINT LeftFoot
        {
          OFFSET 1e-06 -42.155094 -3.481523
          CHANNELS 3 Zrotation Yrotation Xrotation
          JOINT LeftToeBase
          {
            OFFSET 0.0 -5.059472 13.231529
            CHANNELS 3 Zrotation Yrotation Xrotation
            JOINT LeftToeEnd
            {
              OFFSET -0.009607 -1.647619 6.513017
              CHANNELS 3 Zrotation Yrotation Xrotation
            }
          }
        }
      }
    }
    JOINT RightLeg
    {
      OFFSET -10.047278 -8.29526 2.620317
      CHANNELS 3 Zrotation Yrotation Xrotation
      JOINT RightShin
      {
        OFFSET 1e-06 -43.362206 -0.805556
        CHANNELS 3 Zrotation Yrotation Xrotation
        JOINT RightFoot
        {
          OFFSET 2e-06 -42.117393 -3.478398
          CHANNELS 3 Zrotation Yrotation Xrotation
          JOINT RightToeBase
          {
            OFFSET -0.0 -5.079609 13.284196
            CHANNELS 3 Zrotation Yrotation Xrotation
            JOINT RightToeEnd
            {
              OFFSET 0.009532 -1.634378 6.460591
              CHANNELS 3 Zrotation Yrotation Xrotation
            }
          }
        }
      }
    }
  }
}
MOTION
Frames: 4
Frame Time: 0.03333333333333333
0.0 0.0 0.0 0.0 -0.0 0.0 205.882385 84.023705 63.197662 -0.612061 -25.705927 11.035036 1.229789 -0.537164 10.462332 -0.465755 0.165193 -0.897043 2.07454 -2.318981 15.719418 -2.550577 2.098209 -8.323886 -0.260491 -1.204561 -3.5978 0.379108 -1.852782 -14.260305 7.7e-05 -2.3e-05 6e-06 -0.008292 -0.020433 -0.062755 0.624554 -3.708241 -10.611879 -0.646496 3.663255 -10.513235 -2.484557 -10.015848 14.127822 -73.32515 -10.82902 -2.321888 0.057375 -42.003468 -0.737126 -5.194153 -10.535931 -15.620945 -5.882107 9.861286 0.70259 -10.936869 -0.360573 7.156205 -1e-06 8.774825 -1e-06 -17.831743 18.97683 6.261454 -1.844032 2.498505 -2.507276 -10.163599 4.678946 4.621108 -20.976021 -0.0 1e-06 -21.226286 2.451698 -3.594002 -0.0 -7e-06 1e-06 -1.362682 2.240798 -0.746323 -21.334909 0.584911 3.008323 -13.821213 -1e-06 3e-06 -23.887165 -0.249076 -0.839485 -65.601929 3.526932 -2.549115 -0.294025 1.679688 0.833256 -14.218205 0.093217 1.30058 -34.212048 -0.287558 0.967168 -20.033211 0.964538 1.212841 -0.0 -2e-06 0.0 -3.440389 0.788234 0.501656 -15.928185 -3.167308 2.999708 -6.338824 -0.0 1e-06 -18.123446 3.648185 -4.905671 -4e-06 1e-06 -2e-06 13.625693 17.375362 15.726129 61.433815 5.84294 3.41157 0.483244 56.814331 0.670793 -9.920451 17.02253 9.633336 2.243541 -5.255037 -3.180157 14.282891 -0.826597 6.952502 1e-06 -12.690605 -0.0 17.374405 -17.742601 2.122111 1.665666 -1.955923 -2.878298 4.727799 -4.170589 4.993922 11.020523 3e-06 0.0 12.10905 -3.735718 -2.866784 1e-06 -0.0 0.0 1.291986 -1.92855 -1.498089 14.800127 0.567466 3.865607 14.242571 -1.341738 -6.660657 19.631966 0.143923 -0.648246 52.248543 -0.314799 -5.867332 0.353029 -1.511151 -0.03194 20.222788 3.684306 2.316632 18.78727 1e-06 -0.0 10.751627 -0.479871 1.397903 2e-06 0.0 0.0 3.273807 0.305944 -0.58011 21.486809 11.830373 2.266135 8.162927 -1e-06 -0.0 18.399082 -3.798988 -4.940577 3e-06 -1e-06 -0.0 13.466968 5.288093 -13.5159 -0.312954 -1.465368 80.865669 -12.975498 6.631459 13.503967 2.509928 -1.981843 -3.046422 -1e-06 -0.0 2e-06 15.149498 -7.095197 -29.490738 -0.629903 -1.743153 64.307533 -4.308328 -9.577493 -35.751316 -1.382076 0.577222 -6.882089 -0.0 0.0 -1e-06 
0.0 0.0 0.0 0.0 -0.0 0.0 202.925461 83.598419 68.749046 -2.886338 -35.678936 12.501252 1.770116 0.706228 11.227609 -0.289486 2.169365 -0.76611 1.765407 1.079273 16.81835 -6.067674 2.417873 -9.275455 -0.521467 -0.248003 -3.834939 0.619656 -0.977956 -13.542583 7.7e-05 -2.3e-05 6e-06 -0.012247 -0.077654 -0.151573 0.611479 -3.781129 -10.75586 -0.642388 3.619694 -10.659554 -6.397142 -5.286763 14.975243 -73.030807 -1.371877 -3.39881 0.558426 -41.377365 -1.414497 -3.634354 -11.687078 -13.720273 -5.88211 9.86129 0.702588 -10.93688 -0.360578 7.156208 2e-06 8.77483 -1e-06 -17.287813 18.666538 6.238448 -1.844035 2.498506 -2.507279 -10.163608 4.678945 4.621109 -20.976044 -8e-06 -0.0 -21.226305 2.45169 -3.594003 1e-06 -7e-06 -2e-06 -1.362683 2.2408 -0.746323 -21.334934 0.584905 3.008321 -13.821229 -7e-06 1e-06 -23.887196 -0.249087 -0.839484 -64.296547 3.270848 -1.973677 -0.294025 1.679688 0.833256 -14.218224 0.093212 1.300578 -34.212082 -0.287575 0.967169 -20.033232 0.96453 1.212843 -1e-06 -3e-06 -1e-06 -3.440392 0.788233 0.501655 -15.928203 -3.167315 2.999704 -6.338832 -3e-06 -2e-06 -18.123465 3.64818 -4.905675 -4e-06 -0.0 -2e-06 8.706029 22.15678 14.208674 62.383766 22.108902 0.479067 -3.406824 63.379082 -3.103928 -7.904768 15.668474 11.709776 2.243544 -5.255039 -3.18016 14.282895 -0.826597 6.952502 -3e-06 -12.690609 4e-06 17.077831 -18.554169 2.238454 1.665667 -1.955921 -2.8783 4.727798 -4.17059 4.993927 11.020529 4e-06 -3e-06 12.109056 -3.735715 -2.866787 1e-06 -1e-06 1e-06 1.291986 -1.928547 -1.498091 14.800132 0.567466 3.865607 14.242579 -1.341734 -6.660666 19.631973 0.143928 -0.648251 51.751541 -0.227555 -6.348308 0.35303 -1.511152 -0.03194 20.222799 3.684309 2.316626 18.787283 5e-06 -5e-06 10.751632 -0.479868 1.397904 -1e-06 2e-06 -0.0 3.273808 0.30595 -0.580112 21.486818 11.83038 2.266127 8.162929 1e-06 -2e-06 18.399084 -3.798986 -4.94058 1e-06 -0.0 -1e-06 11.338521 6.933444 -27.400427 -0.174122 -0.496907 93.715149 -9.009934 11.723103 6.621403 2.516827 -2.023942 -2.668489 -1e-06 0.0 1e-06 14.503461 1.298751 -22.730192 -0.65261 -1.991053 62.751961 -6.310904 -9.612129 -34.678745 -1.325697 0.707532 -9.090122 -0.0 1e-06 -1e-06 
0.0 0.0 0.0 0.0 -0.0 0.0 198.587936 83.477509 76.030441 -3.284881 -45.030117 13.943309 1.312453 2.006999 11.53304 -0.389328 4.332489 -0.732552 0.951752 4.469584 16.581347 -9.717813 2.899287 -9.053999 -0.305214 -0.2323 -3.779233 0.349892 -0.273193 -12.611991 7.7e-05 -2.3e-05 7e-06 -0.038589 0.001221 -0.161342 0.616183 -3.714828 -10.872479 -0.700903 3.704607 -10.816652 -8.192989 -0.321544 15.810112 -73.355797 10.704837 -1.041638 0.612028 -49.703659 -2.243592 -2.061572 -13.798686 -16.692934 -5.882106 9.861285 0.70259 -10.936873 -0.360576 7.156204 2e-06 8.774825 -1e-06 -16.858971 17.804667 5.78158 -1.844032 2.498505 -2.507276 -10.163599 4.678944 4.621108 -20.976023 -5e-06 3e-06 -21.226286 2.451694 -3.594 0.0 -7e-06 -1e-06 -1.362681 2.240798 -0.746323 -21.334913 0.584908 3.008323 -13.821215 -4e-06 1e-06 -23.887171 -0.249081 -0.839482 -63.39777 2.692799 -1.663528 -0.294025 1.679687 0.833256 -14.218209 0.093213 1.30058 -34.212051 -0.287567 0.967172 -20.033215 0.964535 1.212843 -1e-06 -1e-06 -1e-06 -3.440389 0.788233 0.501654 -15.928189 -3.167311 2.999708 -6.338827 -2e-06 2e-06 -18.123449 3.648182 -4.905671 -4e-06 1e-06 -3e-06 0.509666 26.447884 11.37061 63.55534 37.194366 -4.973144 0.449159 73.798866 -0.97624 -4.484231 12.47549 15.423602 2.243542 -5.255038 -3.18016 14.282896 -0.826594 6.952508 -4e-06 -12.690609 2e-06 16.518673 -18.304502 2.635027 1.665667 -1.955921 -2.878301 4.727801 -4.170588 4.993929 11.020529 4e-06 -1e-06 12.109056 -3.735717 -2.866785 0.0 1e-06 0.0 1.291986 -1.928549 -1.498091 14.800136 0.567468 3.865611 14.24258 -1.341735 -6.660661 19.631975 0.143926 -0.648244 50.378345 -0.221175 -6.119462 0.353029 -1.511152 -0.031939 20.222801 3.684309 2.316633 18.787283 4e-06 0.0 10.751633 -0.479869 1.397907 -1e-06 -0.0 0.0 3.273808 0.305947 -0.580111 21.486824 11.830379 2.266136 8.16293 1e-06 1e-06 18.399088 -3.798988 -4.940576 4e-06 -0.0 -1e-06 8.356606 9.145858 -43.669136 -0.108815 -0.103954 100.34417 -5.835584 16.255276 0.548462 2.322845 -2.106903 -2.980214 -0.0 0.0 3e-06 10.08333 5.269454 -15.619227 -0.4677 -1.698006 58.411991 -7.950078 -4.277889 -33.834942 -1.323831 0.659097 -11.542887 -0.0 0.0 -1e-06 
0.0 0.0 0.0 0.0 -0.0 0.0 194.18869 84.079781 83.375137 -1.092758 -50.896038 14.588152 0.127916 3.344307 10.15749 -0.605238 6.151586 -0.948168 -0.121832 6.445407 15.45636 -12.314106 4.074751 -6.972102 -0.019557 -1.449197 -3.849621 0.48893 -0.495111 -10.390454 7.7e-05 -2.3e-05 7e-06 -0.053028 0.066039 -0.183945 0.615966 -3.650767 -10.947281 -0.729435 3.760044 -10.925183 -7.413847 3.382612 16.701004 -74.277412 22.582754 0.760025 1.019908 -60.501537 -3.058638 1.423029 -16.344513 -24.077206 -5.88211 9.861292 0.70259 -10.936878 -0.360576 7.156209 1e-06 8.774831 1e-06 -16.510025 17.181505 5.360885 -1.844034 2.498506 -2.507279 -10.163606 4.678948 4.621109 -20.97604 -6e-06 -0.0 -21.226301 2.451696 -3.594005 -1e-06 -5e-06 -0.0 -1.362682 2.240799 -0.746324 -21.334929 0.584908 3.008323 -13.821225 -4e-06 2e-06 -23.887186 -0.249083 -0.839484 -62.608055 2.336899 -1.583161 -0.294025 1.679689 0.833256 -14.21822 0.093214 1.300581 -34.212074 -0.287569 0.967169 -20.03323 0.964534 1.212844 0.0 -0.0 0.0 -3.440391 0.788233 0.501656 -15.928196 -3.167313 2.999707 -6.33883 -2e-06 0.0 -18.123459 3.648183 -4.905676 -2e-06 1e-06 -2e-06 -7.968966 28.503864 8.046974 60.841625 49.696613 -12.87786 36.072933 83.244019 34.623657 0.213646 10.784574 13.55882 2.243542 -5.255041 -3.18016 14.282896 -0.826596 6.952508 1e-06 -12.69061 -1e-06 15.902169 -17.68825 2.801817 1.665666 -1.955924 -2.878299 4.727802 -4.170589 4.993927 11.02053 1e-06 3e-06 12.109057 -3.735719 -2.866784 0.0 -0.0 -0.0 1.291986 -1.92855 -1.49809 14.800134 0.567467 3.865613 14.242575 -1.341741 -6.660658 19.631973 0.143921 -0.648242 50.049088 -0.902309 -5.863573 0.353029 -1.511152 -0.031939 20.222801 3.684309 2.316636 18.787283 1e-06 3e-06 10.751633 -0.479871 1.397908 -0.0 1e-06 1e-06 3.273808 0.305947 -0.58011 21.486826 11.830378 2.26614 8.162932 0.0 1e-06 18.399092 -3.798989 -4.940577 5e-06 1e-06 -1e-06 4.456592 8.786312 -60.438042 -0.017868 -0.128854 98.957802 -4.237824 21.639679 -4.451546 2.212788 -2.208705 -4.032425 -1e-06 -0.0 2e-06 3.280545 5.168132 -6.63581 -0.055345 -0.801888 47.142303 -7.611842 3.313925 -30.755569 -1.317986 0.531724 -17.262438 0.0 1e-06 -1e-06 
